<svg width="864" height="376" viewBox="0 0 864 376" fill="none" xmlns="http://www.w3.org/2000/svg">
<g clip-path="url(#clip0_1586_584)">
<path d="M4.63273 329.777C3.94201 329.777 3.38849 329.616 2.97217 329.294C2.55585 328.972 2.30984 328.532 2.23414 327.974L2.34768 327.96V332.544H0.218758V322.396H2.30511V324L2.17737 323.972C2.28145 323.442 2.56531 323.026 3.02894 322.723C3.49257 322.411 4.06502 322.254 4.74627 322.254C5.39914 322.254 5.96213 322.411 6.43522 322.723C6.91778 323.026 7.28679 323.456 7.54226 324.014C7.8072 324.573 7.93966 325.23 7.93966 325.987C7.93966 326.754 7.80247 327.421 7.52807 327.988C7.25368 328.556 6.87047 328.996 6.37845 329.308C5.88643 329.621 5.30453 329.777 4.63273 329.777ZM4.03663 328.074C4.53811 328.074 4.94497 327.894 5.25722 327.534C5.56946 327.175 5.72558 326.664 5.72558 326.001C5.72558 325.339 5.56473 324.833 5.24302 324.483C4.93078 324.133 4.51919 323.958 4.00825 323.958C3.51623 323.958 3.10937 324.137 2.78766 324.497C2.47542 324.847 2.3193 325.353 2.3193 326.016C2.3193 326.678 2.47542 327.189 2.78766 327.548C3.10937 327.899 3.52569 328.074 4.03663 328.074ZM12.7041 329.777C11.9093 329.777 11.2092 329.621 10.6036 329.308C10.0075 328.987 9.53913 328.542 9.1985 327.974C8.86734 327.397 8.70175 326.735 8.70175 325.987C8.70175 325.24 8.86734 324.587 9.1985 324.029C9.53913 323.47 10.0075 323.035 10.6036 322.723C11.2092 322.411 11.9093 322.254 12.7041 322.254C13.5084 322.254 14.2086 322.411 14.8047 322.723C15.4102 323.035 15.8786 323.47 16.2098 324.029C16.5409 324.587 16.7065 325.24 16.7065 325.987C16.7065 326.735 16.5362 327.397 16.1956 327.974C15.8644 328.542 15.396 328.987 14.7905 329.308C14.1944 329.621 13.4989 329.777 12.7041 329.777ZM12.7041 328.102C13.0353 328.102 13.3333 328.017 13.5983 327.846C13.8727 327.676 14.0903 327.435 14.2512 327.123C14.412 326.801 14.4924 326.418 14.4924 325.973C14.4924 325.32 14.3174 324.819 13.9673 324.469C13.6267 324.109 13.2056 323.929 12.7041 323.929C12.2027 323.929 11.7769 324.109 11.4268 324.469C11.0861 324.828 10.9158 325.33 10.9158 325.973C10.9158 326.418 10.9963 326.801 11.1571 327.123C11.318 327.435 11.5309 327.676 11.7958 327.846C12.0702 328.017 12.373 328.102 12.7041 328.102ZM19.1455 329.635L16.9314 322.396H19.1739L20.2809 327.449H20.2241L21.615 322.396H23.602L25.0071 327.449H24.9503L26.0432 322.396H28.2289L26.0148 329.635H23.971L22.5517 324.596H22.6085L21.1892 329.635H19.1455ZM32.4404 329.777C31.6361 329.777 30.9359 329.621 30.3398 329.308C29.7437 328.987 29.2801 328.542 28.9489 327.974C28.6272 327.406 28.4664 326.754 28.4664 326.016C28.4664 325.268 28.6272 324.615 28.9489 324.057C29.2801 323.489 29.739 323.049 30.3257 322.737C30.9123 322.415 31.5935 322.254 32.3694 322.254C33.1169 322.254 33.7651 322.406 34.3138 322.709C34.8626 323.011 35.2884 323.432 35.5912 323.972C35.894 324.511 36.0454 325.145 36.0454 325.874C36.0454 326.025 36.0406 326.167 36.0312 326.299C36.0217 326.422 36.0075 326.541 35.9886 326.654H29.7154V325.249H34.2713L33.9022 325.505C33.9022 324.918 33.7603 324.487 33.4765 324.213C33.2021 323.929 32.8236 323.787 32.341 323.787C31.7828 323.787 31.3475 323.977 31.0353 324.355C30.7325 324.734 30.5811 325.301 30.5811 326.058C30.5811 326.796 30.7325 327.345 31.0353 327.705C31.3475 328.064 31.8112 328.244 32.4262 328.244C32.7668 328.244 33.0601 328.187 33.3061 328.074C33.5522 327.96 33.7367 327.776 33.8597 327.52H35.8609C35.6243 328.22 35.2175 328.774 34.6403 329.181C34.0726 329.578 33.3393 329.777 32.4404 329.777ZM37.1839 329.635V322.396H39.2702V324.1H39.3128V329.635H37.1839ZM39.3128 325.859L39.1283 324.142C39.2986 323.527 39.5778 323.059 39.9657 322.737C40.3536 322.415 40.8362 322.254 41.4134 322.254C41.5931 322.254 41.7256 322.273 41.8108 322.311V324.298C41.7635 324.279 41.6972 324.27 41.6121 324.27C41.5269 324.26 41.4228 324.256 41.2998 324.256C40.6186 324.256 40.1171 324.379 39.7954 324.625C39.4737 324.861 39.3128 325.273 39.3128 325.859ZM46.1343 329.777C45.33 329.777 44.6298 329.621 44.0337 329.308C43.4376 328.987 42.974 328.542 42.6428 327.974C42.3211 327.406 42.1603 326.754 42.1603 326.016C42.1603 325.268 42.3211 324.615 42.6428 324.057C42.974 323.489 43.4329 323.049 44.0195 322.737C44.6062 322.415 45.2874 322.254 46.0633 322.254C46.8108 322.254 47.4589 322.406 48.0077 322.709C48.5565 323.011 48.9823 323.432 49.2851 323.972C49.5879 324.511 49.7392 325.145 49.7392 325.874C49.7392 326.025 49.7345 326.167 49.725 326.299C49.7156 326.422 49.7014 326.541 49.6825 326.654H43.4092V325.249H47.9651L47.5961 325.505C47.5961 324.918 47.4542 324.487 47.1703 324.213C46.8959 323.929 46.5175 323.787 46.0349 323.787C45.4767 323.787 45.0414 323.977 44.7292 324.355C44.4264 324.734 44.275 325.301 44.275 326.058C44.275 326.796 44.4264 327.345 44.7292 327.705C45.0414 328.064 45.505 328.244 46.1201 328.244C46.4607 328.244 46.754 328.187 47 328.074C47.246 327.96 47.4305 327.776 47.5535 327.52H49.5547C49.3182 328.22 48.9113 328.774 48.3342 329.181C47.7664 329.578 47.0331 329.777 46.1343 329.777ZM56.1123 329.635V328.031L56.2542 328.059C56.1596 328.58 55.8757 328.996 55.4026 329.308C54.939 329.621 54.3807 329.777 53.7279 329.777C53.0655 329.777 52.4884 329.625 51.9963 329.323C51.5138 329.01 51.14 328.575 50.8751 328.017C50.6102 327.459 50.4777 326.801 50.4777 326.044C50.4777 325.278 50.6149 324.61 50.8893 324.043C51.1637 323.475 51.5469 323.035 52.0389 322.723C52.5404 322.411 53.1223 322.254 53.7846 322.254C54.4754 322.254 55.0336 322.415 55.4594 322.737C55.8946 323.059 56.1501 323.499 56.2258 324.057L56.0697 324.071V319.416H58.1986V329.635H56.1123ZM54.4091 328.074C54.9106 328.074 55.3175 327.899 55.6297 327.548C55.942 327.189 56.0981 326.678 56.0981 326.016C56.0981 325.353 55.9372 324.847 55.6155 324.497C55.3033 324.137 54.8917 323.958 54.3807 323.958C53.8887 323.958 53.4819 324.137 53.1602 324.497C52.8479 324.857 52.6918 325.367 52.6918 326.03C52.6918 326.692 52.8479 327.198 53.1602 327.548C53.4819 327.899 53.8982 328.074 54.4091 328.074ZM67.0175 329.777C66.3268 329.777 65.7638 329.616 65.3285 329.294C64.9027 328.972 64.652 328.532 64.5763 327.974L64.6898 327.96V329.635H62.6035V319.416H64.7324V324L64.6047 323.972C64.7088 323.442 64.9832 323.026 65.4279 322.723C65.882 322.411 66.4498 322.254 67.131 322.254C67.7839 322.254 68.3469 322.411 68.82 322.723C69.3025 323.026 69.6715 323.456 69.927 324.014C70.1919 324.573 70.3244 325.23 70.3244 325.987C70.3244 326.754 70.1872 327.421 69.9128 327.988C69.6384 328.556 69.2552 328.996 68.7632 329.308C68.2712 329.621 67.6893 329.777 67.0175 329.777ZM66.4214 328.074C66.9229 328.074 67.3297 327.894 67.642 327.534C67.9542 327.175 68.1103 326.664 68.1103 326.001C68.1103 325.339 67.9495 324.833 67.6278 324.483C67.3155 324.133 66.9039 323.958 66.393 323.958C65.901 323.958 65.4941 324.137 65.1724 324.497C64.8602 324.847 64.704 325.353 64.704 326.016C64.704 326.678 64.8602 327.189 65.1724 327.548C65.4941 327.899 65.9104 328.074 66.4214 328.074ZM71.6906 332.544L73.6918 328.116L74.0608 327.506L75.9342 322.396H78.2051L73.8195 332.544H71.6906ZM73.2234 329.493L70.4416 322.396H72.7408L75.0259 328.868L73.2234 329.493Z" fill="#46426C"/>
<path d="M4.34089 342.936C4.34089 342.936 6.69263 342.936 11.3961 342.936C14.4931 342.936 16.8449 343.888 18.4513 345.793C19.9419 347.548 20.6871 349.643 20.6871 352.078C20.6871 355.125 19.8342 357.527 18.1284 359.282C17.3003 360.11 16.3728 360.698 15.346 361.046L20.861 375.926H17.4328L12.0917 361.766H3.37204V375.926H0.142538V342.936C0.142538 342.936 1.54199 342.936 4.34089 342.936ZM3.37204 346.116V358.512H11.3961C13.3835 358.512 14.8657 358.023 15.8429 357.046C16.9028 355.986 17.4328 354.33 17.4328 352.078C17.4328 350.405 16.9691 349.031 16.0416 347.954C14.9817 346.728 13.4332 346.116 11.3961 346.116H3.37204ZM29.7258 342.936H49.2766V346.116H32.9553V357.493H46.1714V360.748H32.9553V372.747H49.2021V376.001H29.7258V342.936ZM68.3764 342.986C69.5523 342.986 70.6702 343.159 71.7301 343.507C72.8066 343.838 73.6844 344.253 74.3634 344.749C75.059 345.23 75.6635 345.718 76.1769 346.215C76.7069 346.695 77.0878 347.101 77.3196 347.432L77.6674 347.954L74.8851 349.544C74.8354 349.445 74.7609 349.32 74.6615 349.171C74.5621 349.022 74.322 348.757 73.9411 348.376C73.5602 347.979 73.1379 347.631 72.6741 347.333C72.227 347.035 71.6142 346.77 70.8358 346.538C70.0574 346.29 69.2376 346.165 68.3764 346.165C66.1737 346.165 64.4596 346.737 63.2341 347.879C62.1741 348.873 61.6441 350.215 61.6441 351.904C61.6441 352.633 61.818 353.254 62.1658 353.767C62.5136 354.281 63.0436 354.777 63.7557 355.258C64.5176 355.771 66.1075 356.516 68.5255 357.493C68.7242 357.576 69.2128 357.767 69.9912 358.065C70.7861 358.363 71.5148 358.653 72.1773 358.934C72.8397 359.216 73.4608 359.522 74.0405 359.853C76.5744 361.261 77.9987 363.1 78.3133 365.368C78.6777 368.118 78.0649 370.494 76.475 372.498C75.6138 373.575 74.4876 374.428 73.0964 375.057C71.7053 375.686 70.1154 376.001 68.3267 376.001C65.1303 376.001 62.4557 375.131 60.3027 373.393C59.8058 372.995 59.3504 372.564 58.9363 372.101C58.5223 371.62 58.2325 371.248 58.0669 370.983L57.8184 370.585L60.7001 369.144C60.9486 369.658 61.4785 370.229 62.29 370.859C63.9131 372.117 65.9253 372.747 68.3267 372.747C70.8606 372.747 72.7238 372.01 73.9162 370.536C74.9927 369.194 75.3985 367.621 75.1335 365.816C75.0341 365.153 74.7609 364.582 74.3137 364.102C73.8831 363.605 73.2621 363.116 72.4505 362.636C72.0034 362.371 71.49 362.122 70.9103 361.891C70.3307 361.642 69.6765 361.385 68.9478 361.12C68.2191 360.839 67.6725 360.624 67.3082 360.475C67.1095 360.392 66.712 360.234 66.1158 360.003C65.5195 359.754 65.0393 359.555 64.6749 359.406C64.3106 359.241 63.8551 359.017 63.3086 358.736C62.7786 358.454 62.3066 358.164 61.8926 357.866C59.6402 356.276 58.4809 354.305 58.4146 351.954C58.3318 349.403 59.2179 347.267 61.0728 345.544C62.9111 343.838 65.3456 342.986 68.3764 342.986ZM86.7061 342.936H107.176V346.165H98.531V372.747H107.176V376.001H86.7061V372.747H95.3512V346.165H86.7061V342.936ZM117.084 342.936H120.339V372.747H136.312V376.001H117.084V342.936ZM144.332 342.936H164.802V346.165H156.157V372.747H164.802V376.001H144.332V372.747H152.977V346.165H144.332V342.936ZM173.791 342.936H193.342V346.116H177.021V357.493H190.237V360.748H177.021V372.747H193.268V376.001H173.791V342.936ZM204.815 342.936L219.373 369.443V342.936H222.627V376.001H219.572L205.014 349.469V376.001H201.76V342.936H204.815ZM230.523 342.936H251.515V346.24H242.597V376.001H239.417V346.24H230.523V342.936ZM291.255 342.936L305.812 369.443V342.936H309.067V376.001H306.011L291.453 349.469V376.001H288.199V342.936H291.255ZM317.857 342.936H337.408V346.116H321.086V357.493H334.302V360.748H321.086V372.747H337.333V376.001H317.857V342.936ZM345.776 342.936H366.767V346.24H357.849V376.001H354.669V346.24H345.776V342.936ZM374.713 342.936H377.942L379.607 368.822L383.358 356.723L385.072 350.811L386.786 356.674L390.537 368.822L392.202 342.936H395.431L393.345 376.001H389.469L385.196 361.891L385.072 360.922L384.948 361.891L380.7 376.001H376.8L374.713 342.936ZM409.115 344.352C410.523 343.408 412.113 342.936 413.885 342.936C415.657 342.936 417.247 343.408 418.655 344.352C420.079 345.296 421.205 346.563 422.033 348.153C423.507 350.985 424.244 354.736 424.244 359.406C424.244 364.093 423.466 367.869 421.909 370.734C421.048 372.324 419.922 373.591 418.531 374.535C417.156 375.463 415.608 375.926 413.885 375.926C412.163 375.926 410.598 375.463 409.19 374.535C407.799 373.591 406.673 372.324 405.811 370.734C404.288 367.936 403.526 364.159 403.526 359.406C403.526 354.769 404.271 351.018 405.762 348.153C406.59 346.563 407.708 345.296 409.115 344.352ZM416.99 346.985C416.162 346.406 415.127 346.116 413.885 346.116C412.643 346.116 411.608 346.406 410.78 346.985C409.968 347.565 409.248 348.459 408.619 349.668C407.377 352.07 406.755 355.316 406.755 359.406C406.755 363.563 407.393 366.826 408.668 369.194C409.314 370.403 410.043 371.289 410.854 371.852C411.683 372.415 412.693 372.697 413.885 372.697C415.078 372.697 416.08 372.415 416.891 371.852C417.719 371.289 418.456 370.403 419.102 369.194C420.377 366.826 421.015 363.563 421.015 359.406C421.015 355.282 420.402 352.036 419.177 349.668C418.547 348.459 417.819 347.565 416.99 346.985ZM436.537 342.936C436.537 342.936 438.889 342.936 443.593 342.936C446.69 342.936 449.041 343.888 450.648 345.793C452.138 347.548 452.884 349.643 452.884 352.078C452.884 355.125 452.031 357.527 450.325 359.282C449.497 360.11 448.569 360.698 447.543 361.046L453.058 375.926H449.629L444.288 361.766H435.569V375.926H432.339V342.936C432.339 342.936 433.739 342.936 436.537 342.936ZM435.569 346.116V358.512H443.593C445.58 358.512 447.062 358.023 448.039 357.046C449.099 355.986 449.629 354.33 449.629 352.078C449.629 350.405 449.166 349.031 448.238 347.954C447.178 346.728 445.63 346.116 443.593 346.116H435.569ZM460.904 342.936H464.133V361.692L478.07 342.936H482.069L471.834 356.723L482.144 376.001H478.517L469.797 359.531L464.133 367.107V376.001H460.904V342.936ZM500.573 342.986C501.749 342.986 502.867 343.159 503.927 343.507C505.003 343.838 505.881 344.253 506.56 344.749C507.256 345.23 507.86 345.718 508.373 346.215C508.903 346.695 509.284 347.101 509.516 347.432L509.864 347.954L507.082 349.544C507.032 349.445 506.957 349.32 506.858 349.171C506.759 349.022 506.519 348.757 506.138 348.376C505.757 347.979 505.334 347.631 504.871 347.333C504.424 347.035 503.811 346.77 503.032 346.538C502.254 346.29 501.434 346.165 500.573 346.165C498.37 346.165 496.656 346.737 495.431 347.879C494.371 348.873 493.841 350.215 493.841 351.904C493.841 352.633 494.015 353.254 494.362 353.767C494.71 354.281 495.24 354.777 495.952 355.258C496.714 355.771 498.304 356.516 500.722 357.493C500.921 357.576 501.409 357.767 502.188 358.065C502.983 358.363 503.711 358.653 504.374 358.934C505.036 359.216 505.657 359.522 506.237 359.853C508.771 361.261 510.195 363.1 510.51 365.368C510.874 368.118 510.261 370.494 508.672 372.498C507.81 373.575 506.684 374.428 505.293 375.057C503.902 375.686 502.312 376.001 500.523 376.001C497.327 376.001 494.652 375.131 492.499 373.393C492.002 372.995 491.547 372.564 491.133 372.101C490.719 371.62 490.429 371.248 490.263 370.983L490.015 370.585L492.897 369.144C493.145 369.658 493.675 370.229 494.487 370.859C496.11 372.117 498.122 372.747 500.523 372.747C503.057 372.747 504.92 372.01 506.113 370.536C507.189 369.194 507.595 367.621 507.33 365.816C507.231 365.153 506.957 364.582 506.51 364.102C506.08 363.605 505.459 363.116 504.647 362.636C504.2 362.371 503.687 362.122 503.107 361.891C502.527 361.642 501.873 361.385 501.144 361.12C500.416 360.839 499.869 360.624 499.505 360.475C499.306 360.392 498.909 360.234 498.312 360.003C497.716 359.754 497.236 359.555 496.871 359.406C496.507 359.241 496.052 359.017 495.505 358.736C494.975 358.454 494.503 358.164 494.089 357.866C491.837 356.276 490.677 354.305 490.611 351.954C490.528 349.403 491.414 347.267 493.269 345.544C495.108 343.838 497.542 342.986 500.573 342.986Z" fill="#46426C"/>
<path d="M506.306 190.893C506.307 217.491 528.035 239.22 562.258 239.22V268.44C510.053 268.44 474.088 233.6 474.088 190.893L473.953 88.002H506.171L506.306 190.893Z" fill="#4D00FF"/>
<path d="M777.473 0C825.799 0.000436613 863.635 37.836 863.636 84.2886C863.636 107.141 853.146 130.744 833.291 149.1L737.972 233.324H694.015L811.189 126.621C825.05 112.386 830.67 98.5241 830.67 84.2886C830.669 52.821 806.319 29.9704 777.473 29.9699C747.129 29.9699 723.528 52.8207 723.902 88.2886H692.059C692.059 37.8357 727.649 0 777.473 0Z" fill="url(#paint0_linear_1586_584)"/>
<path d="M562.262 239.215C602.071 239.215 618.214 212.735 618.214 212.735V249.329C605.476 261.692 586.367 268.435 562.262 268.435V239.215Z" fill="url(#paint1_linear_1586_584)"/>
<path d="M617.838 88.007H648.557V301.306L569.886 373.704L546.773 350.216L617.838 285.045C617.838 229.389 617.838 143.663 617.838 88.007Z" fill="#4D00FF"/>
<path d="M208.933 265.137H166.807L106.934 210.457H104.687L44.8161 265.137L0 265.482V261.801L11.2133 251.569L104.687 165.932H106.934L208.933 261.763V265.137Z" fill="#4D00FF"/>
<path d="M862.014 233.337L862.135 265.605H692.431L692.371 234.917L694.006 233.337H862.014Z" fill="#4D00FF"/>
<path d="M33.4019 231.655L0 262.179V88.0752H33.4019V231.655Z" fill="url(#paint2_linear_1586_584)"/>
<path d="M208.933 262.179L175.974 231.213V88.0752H208.933V262.179Z" fill="url(#paint3_linear_1586_584)"/>
<path d="M341.918 238.275C384.551 235.714 403.808 202.32 403.808 202.32V241.015C397.956 247.658 374.838 266.302 341.918 267.943V238.275Z" fill="url(#paint4_linear_1586_584)"/>
<path d="M279.659 176.41C279.731 209.754 305.889 239.645 341.932 238.277V267.943C288.36 269.23 247.858 224.388 247.797 175.41C247.736 126.432 291.461 78.634 352.179 85.839C391.435 90.4972 434.532 115.098 434.532 189.943C434.532 239.434 434.532 265.321 434.532 265.321H403.728C403.728 265.321 403.728 211.731 403.728 185.324C403.728 137.594 377.448 117.28 347.695 114.071C312.602 110.286 279.659 138.66 279.659 176.41Z" fill="#4D00FF"/>
</g>
<defs>
<linearGradient id="paint0_linear_1586_584" x1="764.146" y1="191.816" x2="716.056" y2="235.252" gradientUnits="userSpaceOnUse">
<stop stop-color="#4D00FF"/>
<stop offset="1" stop-color="#2B009E"/>
</linearGradient>
<linearGradient id="paint1_linear_1586_584" x1="571.749" y1="256.178" x2="614.059" y2="228.909" gradientUnits="userSpaceOnUse">
<stop stop-color="#4D00FF"/>
<stop offset="1" stop-color="#2B009E"/>
</linearGradient>
<linearGradient id="paint2_linear_1586_584" x1="104.466" y1="168.968" x2="104.466" y2="247.179" gradientUnits="userSpaceOnUse">
<stop stop-color="#4D00FF"/>
<stop offset="1" stop-color="#4F9D98"/>
</linearGradient>
<linearGradient id="paint3_linear_1586_584" x1="104.466" y1="168.968" x2="104.466" y2="247.179" gradientUnits="userSpaceOnUse">
<stop stop-color="#4D00FF"/>
<stop offset="1" stop-color="#4F9D98"/>
</linearGradient>
<linearGradient id="paint4_linear_1586_584" x1="351.425" y1="255.714" x2="393.735" y2="228.444" gradientUnits="userSpaceOnUse">
<stop stop-color="#4D00FF"/>
<stop offset="1" stop-color="#2B009E"/>
</linearGradient>
<clipPath id="clip0_1586_584">
<rect width="864" height="376" fill="white"/>
</clipPath>
</defs>
</svg>
